<?xml version="1.0" standalone="no"?><!DOCTYPE svg PUBLIC "-//W3C//DTD SVG 1.1//EN" "http://www.w3.org/Graphics/SVG/1.1/DTD/svg11.dtd"><svg width="36" height="36" viewBox="0 0 72 72" version="1.1" xmlns="http://www.w3.org/2000/svg" xmlns:xlink="http://www.w3.org/1999/xlink" style="border-bottom-color:rgb(115, 123, 130);border-left-color:rgb(115, 123, 130);border-right-color:rgb(115, 123, 130);border-top-color:rgb(115, 123, 130);color:rgb(115, 123, 130);cursor:pointer;font-family:minion-pro, Georgia, serif;height:36px;line-height:23px;list-style-type:none;outline-color:rgb(115, 123, 130);text-align:center;-webkit-text-decoration-color:rgb(115, 123, 130);transform-origin:18px 18px;width:36px;column-rule-color:rgb(115, 123, 130);perspective-origin:18px 18px;-webkit-text-emphasis-color:rgb(115, 123, 130);-webkit-text-fill-color:rgb(115, 123, 130);-webkit-text-stroke-color:rgb(115, 123, 130);stroke:rgb(115, 123, 130);"><title style="border-bottom-color:rgb(115, 123, 130);border-left-color:rgb(115, 123, 130);border-right-color:rgb(115, 123, 130);border-top-color:rgb(115, 123, 130);color:rgb(115, 123, 130);cursor:pointer;font-family:minion-pro, Georgia, serif;height:auto;line-height:23px;list-style-type:none;outline-color:rgb(115, 123, 130);overflow-x:visible;overflow-y:visible;text-align:center;-webkit-text-decoration-color:rgb(115, 123, 130);transform-origin:0px 0px;width:auto;column-rule-color:rgb(115, 123, 130);perspective-origin:50% 50%;-webkit-text-emphasis-color:rgb(115, 123, 130);-webkit-text-fill-color:rgb(115, 123, 130);-webkit-text-stroke-color:rgb(115, 123, 130);stroke:rgb(115, 123, 130);">utility-user-</title><path d="M20.2 51.6a8.1 8.1 0 0 1 3.1-3.6 57.3 57.3 0 0 1 7.1-2.5 6.4 6.4 0 0 0 .2-5.4 11.1 11.1 0 0 1-2-6.5c0-5.2 3.3-9.5 7.3-9.5h.4c4.1 0 7.3 4.2 7.3 9.5a11.1 11.1 0 0 1-2 6.5 6.4 6.4 0 0 0 .2 5.4 57.3 57.3 0 0 1 7.3 2.5 8.1 8.1 0 0 1 3.1 3.6" fill="none" stroke="#838383" stroke-linecap="round" stroke-linejoin="round" stroke-width="3" style="border-bottom-color:rgb(115, 123, 130);border-left-color:rgb(115, 123, 130);border-right-color:rgb(115, 123, 130);border-top-color:rgb(115, 123, 130);color:rgb(115, 123, 130);cursor:pointer;font-family:minion-pro, Georgia, serif;height:auto;line-height:23px;list-style-type:none;outline-color:rgb(115, 123, 130);overflow-x:visible;overflow-y:visible;text-align:center;-webkit-text-decoration-color:rgb(115, 123, 130);transform-origin:0px 0px;width:auto;column-rule-color:rgb(115, 123, 130);perspective-origin:0px 0px;-webkit-text-emphasis-color:rgb(115, 123, 130);-webkit-text-fill-color:rgb(115, 123, 130);-webkit-text-stroke-color:rgb(115, 123, 130);fill:none;stroke:rgb(131, 131, 131);stroke-linecap:round;stroke-linejoin:round;stroke-width:3px;"/><path d="M46.8 38.9l3.4-.8a5.3 5.3 0 0 0 .2-4.5 9.2 9.2 0 0 1-1.6-5.4c0-4.4 2.7-7.9 6.1-7.9h.3c3.4 0 6.1 3.5 6.1 7.9a9.2 9.2 0 0 1-1.6 5.4 5.3 5.3 0 0 0 .2 4.5 49.2 49.2 0 0 1 5.6 2.1 6.7 6.7 0 0 1 2.6 3M25.2 38.9l-3.4-.8a5.3 5.3 0 0 1-.2-4.5 9.2 9.2 0 0 0 1.6-5.4c0-4.4-2.7-7.9-6.1-7.9h-.2c-3.4 0-6.1 3.5-6.1 7.9a9.2 9.2 0 0 0 1.6 5.4 5.3 5.3 0 0 1-.2 4.5 49.2 49.2 0 0 0-5.6 2.1 6.7 6.7 0 0 0-2.6 3" fill="none" stroke="#838383" stroke-linecap="round" stroke-linejoin="round" stroke-width="3" style="border-bottom-color:rgb(115, 123, 130);border-left-color:rgb(115, 123, 130);border-right-color:rgb(115, 123, 130);border-top-color:rgb(115, 123, 130);color:rgb(115, 123, 130);cursor:pointer;font-family:minion-pro, Georgia, serif;height:auto;line-height:23px;list-style-type:none;outline-color:rgb(115, 123, 130);overflow-x:visible;overflow-y:visible;text-align:center;-webkit-text-decoration-color:rgb(115, 123, 130);transform-origin:0px 0px;width:auto;column-rule-color:rgb(115, 123, 130);perspective-origin:0px 0px;-webkit-text-emphasis-color:rgb(115, 123, 130);-webkit-text-fill-color:rgb(115, 123, 130);-webkit-text-stroke-color:rgb(115, 123, 130);fill:none;stroke:rgb(131, 131, 131);stroke-linecap:round;stroke-linejoin:round;stroke-width:3px;"/></svg>