<?xml version="1.0" standalone="no"?><!DOCTYPE svg PUBLIC "-//W3C//DTD SVG 1.1//EN" "http://www.w3.org/Graphics/SVG/1.1/DTD/svg11.dtd"><svg width="18" height="18" viewBox="0 0 72 72" version="1.1" xmlns="http://www.w3.org/2000/svg" xmlns:xlink="http://www.w3.org/1999/xlink" style="border-bottom-color:rgb(255, 255, 255);border-left-color:rgb(255, 255, 255);border-right-color:rgb(255, 255, 255);border-top-color:rgb(255, 255, 255);color:rgb(255, 255, 255);cursor:default;font-family:minion-pro, Georgia, serif;font-size:9px;font-weight:900;height:18px;line-height:16.200000762939453px;list-style-type:none;outline-color:rgb(255, 255, 255);text-align:center;-webkit-text-decoration-color:rgb(255, 255, 255);transform-origin:50% 50%;width:18px;column-rule-color:rgb(255, 255, 255);perspective-origin:50% 50%;-webkit-text-emphasis-color:rgb(255, 255, 255);-webkit-text-fill-color:rgb(255, 255, 255);-webkit-text-stroke-color:rgb(255, 255, 255);"><title style="border-bottom-color:rgb(255, 255, 255);border-left-color:rgb(255, 255, 255);border-right-color:rgb(255, 255, 255);border-top-color:rgb(255, 255, 255);color:rgb(255, 255, 255);cursor:default;font-family:minion-pro, Georgia, serif;font-size:9px;font-weight:900;height:auto;line-height:16.200000762939453px;list-style-type:none;outline-color:rgb(255, 255, 255);overflow-x:visible;overflow-y:visible;text-align:center;-webkit-text-decoration-color:rgb(255, 255, 255);transform-origin:0px 0px;width:auto;column-rule-color:rgb(255, 255, 255);perspective-origin:50% 50%;-webkit-text-emphasis-color:rgb(255, 255, 255);-webkit-text-fill-color:rgb(255, 255, 255);-webkit-text-stroke-color:rgb(255, 255, 255);">utility-basics-</title><path class="fill_layer" d="M36.3 9a27 27 0 1 0 27 27 27 27 0 0 0-27-27zm13.9 15.7L34.6 49.3a1.9 1.9 0 0 1-1.4.9H33a1.9 1.9 0 0 1-1.3-.6l-9.1-9.3a1.9 1.9 0 0 1 0-2.7 1.8 1.8 0 0 1 1.3-.5 1.9 1.9 0 0 1 1.3.6l7.5 7.6L47 22.7a1.9 1.9 0 1 1 3.2 2z" fill="#838383" stroke-width="4.6" style="border-bottom-color:rgb(255, 255, 255);border-left-color:rgb(255, 255, 255);border-right-color:rgb(255, 255, 255);border-top-color:rgb(255, 255, 255);color:rgb(255, 255, 255);cursor:default;font-family:minion-pro, Georgia, serif;font-size:9px;font-weight:900;height:auto;line-height:16.200000762939453px;list-style-type:none;outline-color:rgb(255, 255, 255);overflow-x:visible;overflow-y:visible;text-align:center;-webkit-text-decoration-color:rgb(255, 255, 255);transform-origin:0px 0px;width:auto;column-rule-color:rgb(255, 255, 255);perspective-origin:50% 50%;-webkit-text-emphasis-color:rgb(255, 255, 255);-webkit-text-fill-color:rgb(255, 255, 255);-webkit-text-stroke-color:rgb(255, 255, 255);fill:none;stroke-width:4.599999904632568px;"/></svg>