<?xml version="1.0" standalone="no"?><!DOCTYPE svg PUBLIC "-//W3C//DTD SVG 1.1//EN" "http://www.w3.org/Graphics/SVG/1.1/DTD/svg11.dtd"><svg width="36" height="36" viewBox="0 0 72 72" version="1.1" xmlns="http://www.w3.org/2000/svg" xmlns:xlink="http://www.w3.org/1999/xlink" style="border-bottom-color:rgb(115, 123, 130);border-left-color:rgb(115, 123, 130);border-right-color:rgb(115, 123, 130);border-top-color:rgb(115, 123, 130);color:rgb(115, 123, 130);cursor:default;font-family:minion-pro, Georgia, serif;height:36px;line-height:23px;list-style-type:none;outline-color:rgb(115, 123, 130);text-align:center;-webkit-text-decoration-color:rgb(115, 123, 130);transform-origin:18px 18px;width:36px;column-rule-color:rgb(115, 123, 130);perspective-origin:18px 18px;-webkit-text-emphasis-color:rgb(115, 123, 130);-webkit-text-fill-color:rgb(115, 123, 130);-webkit-text-stroke-color:rgb(115, 123, 130);stroke:rgb(115, 123, 130);"><title style="border-bottom-color:rgb(186, 186, 186);border-left-color:rgb(186, 186, 186);border-right-color:rgb(186, 186, 186);border-top-color:rgb(186, 186, 186);color:rgb(186, 186, 186);cursor:default;font-family:minion-pro, Georgia, serif;height:auto;line-height:23px;list-style-type:none;outline-color:rgb(186, 186, 186);overflow-x:visible;overflow-y:visible;text-align:center;-webkit-text-decoration-color:rgb(186, 186, 186);transform-origin:0px 0px;width:auto;column-rule-color:rgb(186, 186, 186);perspective-origin:50% 50%;-webkit-text-emphasis-color:rgb(186, 186, 186);-webkit-text-fill-color:rgb(186, 186, 186);-webkit-text-stroke-color:rgb(186, 186, 186);stroke:rgb(186, 186, 186);">objects-business-72-export</title><path fill="none" stroke="#838383" stroke-linecap="round" stroke-linejoin="round" stroke-width="3" d="M50.6 49.3l-6.1-6M50.5 20l7.9-3.7M59.1 43.9l9.4-3.8M25.2 23.5h-4.6M55.3 44.3a3.7 3.7 0 0 1 .2 5 3.2 3.2 0 0 1-4.8.2h-.1a3.5 3.5 0 0 1-.7 2.2 3.1 3.1 0 0 1-4.6.5l-1.2-1.1a3.5 3.5 0 0 1-.6 2.8 3.1 3.1 0 0 1-4.5.6l-.5-.4a3.5 3.5 0 0 1-.6 1.5 3.1 3.1 0 0 1-4.5.8l-.8-.4M14 41.4l2.3 1.8M31.4 50.9a.8.8 0 0 0-.8.4l.3-.8a3.3 3.3 0 0 0-1.9-4.1 2.9 2.9 0 0 0-2.3.1 3.3 3.3 0 0 0-1.8-4 3 3 0 0 0-3.9 1.9l-.6 1.7c-.5-.4-2.9-2.1-4-2.9l-.4 2.5c-.3 1.5.1 2.2 1.6 2.8s1.4.6 2 .1l-.7 2.1c-.6 1.7.2 2.9 1.7 3.7a2.6 2.6 0 0 0 2.7.3 2.6 2.6 0 0 0 1.5 3.3 2.6 2.6 0 0 0 3.6-1.5.9.9 0 0 0 .4.9c1.4.5 2.9.6 3.4-.9l.7-2.1a2.8 2.8 0 0 0-1.5-3.5zM58.4 40.9l-3.1 3.4-18.1-17s-6.5-1.3-8.4 2.8-5.2 3.3-7.1 1.9l4.2-9.8s3.4-2 10.3-2.4 9.2 2.7 15.5 2.6M44.5 51.2L39.9 47M38.6 54l-2.9-2.6M25.7 50.1l1-3.7M21.5 23c.3-1.2.2-1.4.1-1.5s-2.8 4.9-5.1 11.5-4 12.2-3.5 12.5 1.4-1.7 2-2.9M9.6 43.9c-.2.3-1.1 4.3-2.1 2.9-.6-4.7 3.2-11.9 7.4-21.4s4.7-5.3 4.7-4.8M21.5 21.5l-3.6-1.6M13 45.5l-5.2-2.7M18.9 19.4l-7.7-4.3M7.7 47.1l-4.2-2.3" style="border-bottom-color:rgb(186, 186, 186);border-left-color:rgb(186, 186, 186);border-right-color:rgb(186, 186, 186);border-top-color:rgb(186, 186, 186);color:rgb(186, 186, 186);cursor:default;font-family:minion-pro, Georgia, serif;height:auto;line-height:23px;list-style-type:none;outline-color:rgb(186, 186, 186);overflow-x:visible;overflow-y:visible;text-align:center;-webkit-text-decoration-color:rgb(186, 186, 186);transform-origin:0px 0px;width:auto;column-rule-color:rgb(186, 186, 186);perspective-origin:0px 0px;-webkit-text-emphasis-color:rgb(186, 186, 186);-webkit-text-fill-color:rgb(186, 186, 186);-webkit-text-stroke-color:rgb(186, 186, 186);fill:none;stroke:rgb(186, 186, 186);stroke-linecap:round;stroke-linejoin:round;stroke-width:3px;"/><path d="M50.7 21.9c-.3-1.2-.3-1.9-.2-2s2.8 4.9 5.1 11.5 3.9 12.2 3.4 12.4-.8-.6-1.4-1.8" fill="none" stroke="#838383" stroke-linecap="round" stroke-linejoin="round" stroke-width="3" style="border-bottom-color:rgb(186, 186, 186);border-left-color:rgb(186, 186, 186);border-right-color:rgb(186, 186, 186);border-top-color:rgb(186, 186, 186);color:rgb(186, 186, 186);cursor:default;font-family:minion-pro, Georgia, serif;height:auto;line-height:23px;list-style-type:none;outline-color:rgb(186, 186, 186);overflow-x:visible;overflow-y:visible;text-align:center;-webkit-text-decoration-color:rgb(186, 186, 186);transform-origin:0px 0px;width:auto;column-rule-color:rgb(186, 186, 186);perspective-origin:0px 0px;-webkit-text-emphasis-color:rgb(186, 186, 186);-webkit-text-fill-color:rgb(186, 186, 186);-webkit-text-stroke-color:rgb(186, 186, 186);fill:none;stroke:rgb(186, 186, 186);stroke-linecap:round;stroke-linejoin:round;stroke-width:3px;"/></svg>