<?xml version="1.0" standalone="no"?><!DOCTYPE svg PUBLIC "-//W3C//DTD SVG 1.1//EN" "http://www.w3.org/Graphics/SVG/1.1/DTD/svg11.dtd"><svg width="24" height="24" viewBox="0 0 72 72" version="1.1" xmlns="http://www.w3.org/2000/svg" xmlns:xlink="http://www.w3.org/1999/xlink" style="height:24px;text-align:left;transform-origin:50% 50%;width:24px;perspective-origin:50% 50%;"><title style="height:auto;overflow-x:visible;overflow-y:visible;text-align:left;transform-origin:0px 0px;width:auto;perspective-origin:50% 50%;">utility-basics-</title><path d="M30.2 40.4c4.7 4.9 9.7 9.3 12.1 8.5l5.5-2.3c1.5-.7 3.4.6 3.4.6l9.4 5.8c3.9 2.4 3 4 .7 6.2a14.3 14.3 0 0 1-6.6 3.5 17.3 17.3 0 0 1-7.4-.1c-12.9-3.5-23.7-14.5-23.7-14.5S13.2 37.9 9.7 25a17.5 17.5 0 0 1-.1-7.4 14.4 14.4 0 0 1 3.5-6.6c2.2-2.4 3.7-3.3 6.2.6.7 1.2 5.8 9.4 5.8 9.4s1.3 1.9.6 3.4-1.8 4.3-2.3 5.6 6.8 10.4 6.8 10.4z" fill="none" stroke="#838383" stroke-linecap="round" stroke-linejoin="round" stroke-width="3.8" style="height:auto;overflow-x:visible;overflow-y:visible;text-align:left;transform-origin:0px 0px;width:auto;perspective-origin:50% 50%;fill:none;stroke:rgb(255, 255, 255);stroke-linecap:round;stroke-linejoin:round;stroke-width:3.799999952316284px;"/></svg>