<?xml version="1.0" standalone="no"?><!DOCTYPE svg PUBLIC "-//W3C//DTD SVG 1.1//EN" "http://www.w3.org/Graphics/SVG/1.1/DTD/svg11.dtd"><svg width="36" height="36" viewBox="0 0 72 72" version="1.1" xmlns="http://www.w3.org/2000/svg" xmlns:xlink="http://www.w3.org/1999/xlink" style="border-bottom-color:rgb(0, 58, 112);border-left-color:rgb(0, 58, 112);border-right-color:rgb(0, 58, 112);border-top-color:rgb(0, 58, 112);color:rgb(0, 58, 112);cursor:default;font-family:minion-pro, Georgia, serif;height:36px;line-height:23px;list-style-type:none;outline-color:rgb(0, 58, 112);text-align:center;-webkit-text-decoration-color:rgb(0, 58, 112);transform-origin:18px 18px;width:36px;column-rule-color:rgb(0, 58, 112);perspective-origin:18px 18px;-webkit-text-emphasis-color:rgb(0, 58, 112);-webkit-text-fill-color:rgb(0, 58, 112);-webkit-text-stroke-color:rgb(0, 58, 112);stroke:rgb(115, 123, 130);"><title style="border-bottom-color:rgb(115, 123, 130);border-left-color:rgb(115, 123, 130);border-right-color:rgb(115, 123, 130);border-top-color:rgb(115, 123, 130);color:rgb(115, 123, 130);cursor:default;font-family:minion-pro, Georgia, serif;height:auto;line-height:23px;list-style-type:none;outline-color:rgb(115, 123, 130);overflow-x:visible;overflow-y:visible;text-align:center;-webkit-text-decoration-color:rgb(115, 123, 130);transform-origin:0px 0px;width:auto;column-rule-color:rgb(115, 123, 130);perspective-origin:50% 50%;-webkit-text-emphasis-color:rgb(115, 123, 130);-webkit-text-fill-color:rgb(115, 123, 130);-webkit-text-stroke-color:rgb(115, 123, 130);stroke:rgb(0, 58, 112);">utility-user-</title><path d="M9 56.7a12.2 12.2 0 0 1 4.7-5.5c3-1.6 13.6-3.7 13.6-3.8a9.6 9.6 0 0 0 .3-8.1 16.7 16.7 0 0 1-3-9.7c0-7.9 5-14.3 11.1-14.3h.5c6.1 0 11.1 6.4 11.1 14.3a16.7 16.7 0 0 1-3 9.7 9.6 9.6 0 0 0 .3 8.1s10.6 2.2 13.6 3.8a12.2 12.2 0 0 1 4.8 5.5" fill="none" stroke="#838383" stroke-linecap="round" stroke-linejoin="round" stroke-width="3" style="border-bottom-color:rgb(115, 123, 130);border-left-color:rgb(115, 123, 130);border-right-color:rgb(115, 123, 130);border-top-color:rgb(115, 123, 130);color:rgb(115, 123, 130);cursor:default;font-family:minion-pro, Georgia, serif;height:auto;line-height:23px;list-style-type:none;outline-color:rgb(115, 123, 130);overflow-x:visible;overflow-y:visible;text-align:center;-webkit-text-decoration-color:rgb(115, 123, 130);transform-origin:0px 0px;width:auto;column-rule-color:rgb(115, 123, 130);perspective-origin:0px 0px;-webkit-text-emphasis-color:rgb(115, 123, 130);-webkit-text-fill-color:rgb(115, 123, 130);-webkit-text-stroke-color:rgb(115, 123, 130);fill:none;stroke:rgb(0, 58, 112);stroke-linecap:round;stroke-linejoin:round;stroke-width:3px;"/></svg>